<?xml version="1.0" encoding="utf-8"?>
<!-- Generator: Adobe Illustrator 25.0.0, SVG Export Plug-In . SVG Version: 6.00 Build 0)  -->
<svg version="1.1" id="레이어_1" xmlns="http://www.w3.org/2000/svg" xmlns:xlink="http://www.w3.org/1999/xlink" x="0px"
	 y="0px" viewBox="0 0 100 69" style="enable-background:new 0 0 100 69;" xml:space="preserve">
<style type="text/css">
	.st0{fill:#70C1E5;}
	.st1{fill:#467CBF;}
	.st2{fill:#30ABA7;}
</style>
<g>
	<g>
		<path class="st0" d="M56.61,25.66c0,1.63-0.26,3.31-0.78,5.03c-0.52,1.72-1.31,3.36-2.37,4.88c-1.06,1.53-2.4,2.9-4.03,4.11
			c-1.63,1.21-3.55,2.08-5.77,2.63c-0.35,0.1-0.78,0.22-1.3,0.37c-0.52,0.15-0.9,0.2-1.15,0.15H26.19v17.76h-8.88V8.42h23.46
			c0.1,0,0.33,0.03,0.7,0.07c0.37,0.05,0.78,0.12,1.22,0.22c0.44,0.1,0.89,0.21,1.33,0.33c0.44,0.12,0.79,0.23,1.04,0.33
			c2.07,0.79,3.84,1.79,5.29,3s2.65,2.53,3.59,3.96s1.62,2.95,2.04,4.55C56.4,22.49,56.61,24.08,56.61,25.66z M47.8,25.66
			c0-0.64-0.09-1.34-0.26-2.11c-0.17-0.76-0.47-1.52-0.89-2.26s-0.97-1.42-1.67-2.04c-0.69-0.62-1.53-1.1-2.52-1.44
			c-0.25-0.1-0.59-0.21-1.04-0.33s-0.79-0.19-1.04-0.19H26.19v16.65H40.4c1.08,0,2.08-0.26,3-0.78c0.91-0.52,1.69-1.2,2.33-2.04
			c0.64-0.84,1.15-1.74,1.52-2.7S47.8,26.54,47.8,25.66z"/>
	</g>
	<polygon class="st1" points="35.06,33.92 26.18,33.92 26.18,25.04 17.28,25.04 17.28,33.92 8.4,33.92 8.4,42.82 17.28,42.82 
		17.28,51.71 26.18,51.71 26.18,42.82 35.06,42.82 	"/>
	<g>
		<path class="st2" d="M92.41,60.55h-8.93V23.82c0-2.37,2-4.29,4.47-4.29l0,0c2.47,0,4.47,1.92,4.47,4.29v36.73H92.41z"/>
		<polygon class="st1" points="69.95,8.42 47.8,60.58 56.42,60.58 69.95,29.08 83.47,60.58 92.09,60.58 		"/>
		<circle class="st2" cx="87.94" cy="12.9" r="4.47"/>
	</g>
</g>
</svg>
