<?xml version="1.0" encoding="utf-8"?>
<!-- Generator: Adobe Illustrator 25.0.0, SVG Export Plug-In . SVG Version: 6.00 Build 0)  -->
<svg version="1.1" id="레이어_1" xmlns="http://www.w3.org/2000/svg" xmlns:xlink="http://www.w3.org/1999/xlink" x="0px"
	 y="0px" viewBox="0 0 122.9 35" style="enable-background:new 0 0 122.9 35;" xml:space="preserve">
<style type="text/css">
	.st0{fill:#F2F2F2;}
	.st1{fill:#6D6E70;}
</style>
<g>
	<g>
		<path class="st0" d="M30.7,12c0,1-0.2,2-0.5,3c-0.3,1-0.8,2-1.4,2.9c-0.7,0.9-1.4,1.7-2.4,2.5s-2.2,1.3-3.5,1.6
			c-0.2,0.1-0.5,0.1-0.8,0.2c-0.3,0.1-0.5,0.1-0.7,0.1h-9V33H7.2V1.7h14.1c0.1,0,0.2,0,0.4,0.1c0.2,0,0.5,0.1,0.7,0.1
			c0.2,0,0.5,0.1,0.8,0.2s0.5,0.1,0.6,0.2C25,2.7,26.1,3.3,27,4c0.9,0.7,1.6,1.5,2.2,2.4c0.5,0.8,1,1.7,1.2,2.8
			C30.6,10.1,30.7,11.1,30.7,12z M25.5,12c0-0.4-0.1-0.8-0.2-1.3c-0.1-0.5-0.3-0.9-0.5-1.4c-0.2-0.4-0.6-0.8-1-1.2
			c-0.4-0.4-0.9-0.7-1.5-0.8c-0.1-0.1-0.4-0.1-0.6-0.2C21.4,7.1,21.1,7,21,7h-8.5v10H21c0.7,0,1.3-0.2,1.8-0.5
			c0.5-0.3,1-0.7,1.4-1.2s0.7-1,0.9-1.6C25.3,13.1,25.5,12.6,25.5,12z"/>
	</g>
	<g>
		<path class="st1" d="M61,22.3c0,0,4.6-0.1,4.6,3.5c0,3.7-4.5,3.4-4.6,3.4h-2.6V33h-2.2V22.3H61z M61,24.2h-2.6v3.1H61
			c0.3,0,2.1,0,2.1-1.6C63.1,24,61,24.2,61,24.2z"/>
		<path class="st1" d="M69,22.3v2.8h1.9c1,0,1.8,0.2,2.4,0.6c0.6,0.4,0.8,1.1,0.9,2.2v4.9h-2v-4.7c0-0.5-0.1-0.8-0.3-1
			c-0.2-0.2-0.5-0.3-1.1-0.3h-1.6V33h-2V22.3H69z"/>
		<path class="st1" d="M80.2,25.2c0.5,0,0.9,0.1,1.3,0.2c0.4,0.1,0.8,0.3,1.1,0.7c0.3,0.3,0.5,0.6,0.6,1c0.1,0.4,0.2,0.8,0.2,1.1V33
			h-5.5c-0.8,0-1.4-0.2-1.9-0.7c-0.4-0.4-0.6-1-0.6-1.8c0.1-1,0.4-1.6,1-1.8c0.6-0.3,1.3-0.4,2.1-0.4h2.7c0-0.7-0.1-1-0.5-1.2
			c-0.4-0.2-0.8-0.2-1.4-0.2h-3.4v-1.6L80.2,25.2L80.2,25.2z M78.7,31.3h2.6v-1.6h-2.4c0,0-1.3-0.1-1.3,0.8
			C77.6,31.5,78.7,31.3,78.7,31.3z"/>
		<path class="st1" d="M88.6,25.2c1.1,0,1.7,0.2,1.9,0.8c0.2,0.5,0.2,1.2,0.2,2c0,0.1,0,0.2,0,0.2c0,0.1,0,0.2,0,0.2h-2
			c0-0.1,0-0.1,0-0.2s0-0.1,0-0.2c0-0.7-0.1-1.1-0.2-1.3c-0.1-0.1-0.5-0.2-1.3-0.2c-0.1,0-0.1,0-0.1,0c-0.1,0-0.1,0-0.1,0V33h-2
			v-7.8C85.1,25.2,88.6,25.2,88.6,25.2z"/>
		<path class="st1" d="M100,25.2c1,0,1.8,0.2,2.3,0.6c0.6,0.4,0.8,1.1,0.9,2.2v4.9h-2v-4.7c0-0.7-0.2-1.1-0.5-1.3
			c-0.3-0.1-0.8-0.2-1.4-0.1c-0.1,0-0.2,0-0.3,0s-0.2,0-0.3,0v6.1h-2.1v-6.1h-2.4v6.1h-2v-7.8L100,25.2L100,25.2z"/>
		<path class="st1" d="M112.5,22.3L117,33h-2.5l-1-2.5H109l-1,2.5h-2.3l4.5-10.6H112.5z M109.7,28.5h3.2l-1.6-4.1L109.7,28.5z"/>
		<path class="st1" d="M117.8,32.9V22.3h2.3V33L117.8,32.9L117.8,32.9z"/>
	</g>
	<polygon class="st1" points="17.8,17 12.5,17 12.5,11.7 7.2,11.7 7.2,17 1.8,17 1.8,22.3 7.2,22.3 7.2,27.6 12.5,27.6 12.5,22.3 
		17.8,22.3 	"/>
	<g>
		<path class="st0" d="M52.2,33h-5.3v-22c0-1.4,1.2-2.6,2.7-2.6l0,0c1.5,0,2.7,1.1,2.7,2.6L52.2,33L52.2,33z"/>
		<polygon class="st1" points="38.7,1.7 25.5,33 30.6,33 38.7,14.1 46.9,33 52,33 		"/>
		<circle class="st0" cx="49.5" cy="4.3" r="2.7"/>
	</g>
</g>
</svg>
